<mxfile modified="2023-08-08T12:56:14.914Z" host="app.diagrams.net" agent="Mozilla/5.0 (Macintosh; Intel Mac OS X 10_15_7) AppleWebKit/537.36 (KHTML, like Gecko) Chrome/115.0.0.0 Safari/537.36" etag="GE8zjGv2kESVFtX0KEe7" version="21.6.6" type="device">
  <diagram id="Ht1M8jgEwFfnCIfOTk4-" name="Page-1">
    <mxGraphModel dx="1794" dy="775" grid="1" gridSize="10" guides="1" tooltips="1" connect="1" arrows="1" fold="1" page="1" pageScale="1" pageWidth="1169" pageHeight="827" math="0" shadow="0">
      <root>
        <mxCell id="0" />
        <mxCell id="1" parent="0" />
        <mxCell id="-QjtrjUzRDEMRZ5MF8oH-9" value="1" style="rounded=1;whiteSpace=wrap;html=1;fillColor=#007CBD;strokeColor=none;fontColor=#FFFFFF;fontStyle=1;fontSize=22;" parent="1" vertex="1">
          <mxGeometry x="250" y="179" width="40" height="38" as="geometry" />
        </mxCell>
        <mxCell id="-QjtrjUzRDEMRZ5MF8oH-47" value="awscdk-rootmail" style="text;html=1;resizable=0;points=[];autosize=1;align=left;verticalAlign=top;spacingTop=-4;fontSize=30;fontStyle=1" parent="1" vertex="1">
          <mxGeometry x="56.5" y="64.5" width="260" height="40" as="geometry" />
        </mxCell>
        <mxCell id="-QjtrjUzRDEMRZ5MF8oH-48" value="by superwerker" style="text;html=1;resizable=0;points=[];autosize=1;align=left;verticalAlign=top;spacingTop=-4;fontSize=16;" parent="1" vertex="1">
          <mxGeometry x="56.5" y="114.5" width="130" height="30" as="geometry" />
        </mxCell>
        <mxCell id="SCVMTBWpLvtzJIhz15lM-1" value="" style="line;strokeWidth=2;html=1;fontSize=14;" parent="1" vertex="1">
          <mxGeometry x="52.5" y="139.5" width="1060" height="10" as="geometry" />
        </mxCell>
        <mxCell id="7OVz4w7n9kzEPWy-4BBC-3" value="" style="rounded=0;whiteSpace=wrap;html=1;fillColor=#EAEDED;fontSize=22;fontColor=#FFFFFF;strokeColor=none;labelBackgroundColor=none;" parent="1" vertex="1">
          <mxGeometry x="1151" y="51" width="539" height="859" as="geometry" />
        </mxCell>
        <mxCell id="7OVz4w7n9kzEPWy-4BBC-4" value="1" style="rounded=1;whiteSpace=wrap;html=1;fillColor=#007CBD;strokeColor=none;fontColor=#FFFFFF;fontStyle=1;fontSize=22;labelBackgroundColor=none;" parent="1" vertex="1">
          <mxGeometry x="1169" y="63" width="40" height="38" as="geometry" />
        </mxCell>
        <mxCell id="7OVz4w7n9kzEPWy-4BBC-5" value="2" style="rounded=1;whiteSpace=wrap;html=1;fillColor=#007CBD;strokeColor=none;fontColor=#FFFFFF;fontStyle=1;fontSize=22;labelBackgroundColor=none;" parent="1" vertex="1">
          <mxGeometry x="1167.5" y="185" width="40" height="38" as="geometry" />
        </mxCell>
        <mxCell id="7OVz4w7n9kzEPWy-4BBC-6" value="3" style="rounded=1;whiteSpace=wrap;html=1;fillColor=#007CBD;strokeColor=none;fontColor=#FFFFFF;fontStyle=1;fontSize=22;labelBackgroundColor=none;" parent="1" vertex="1">
          <mxGeometry x="1167.5" y="305" width="40" height="38" as="geometry" />
        </mxCell>
        <mxCell id="7OVz4w7n9kzEPWy-4BBC-7" value="4" style="rounded=1;whiteSpace=wrap;html=1;fillColor=#007CBD;strokeColor=none;fontColor=#FFFFFF;fontStyle=1;fontSize=22;labelBackgroundColor=none;" parent="1" vertex="1">
          <mxGeometry x="1167.5" y="419" width="40" height="38" as="geometry" />
        </mxCell>
        <mxCell id="7OVz4w7n9kzEPWy-4BBC-8" value="5" style="rounded=1;whiteSpace=wrap;html=1;fillColor=#007CBD;strokeColor=none;fontColor=#FFFFFF;fontStyle=1;fontSize=22;labelBackgroundColor=none;" parent="1" vertex="1">
          <mxGeometry x="1169" y="536" width="40" height="38" as="geometry" />
        </mxCell>
        <mxCell id="7OVz4w7n9kzEPWy-4BBC-9" value="6" style="rounded=1;whiteSpace=wrap;html=1;fillColor=#007CBD;strokeColor=none;fontColor=#FFFFFF;fontStyle=1;fontSize=22;labelBackgroundColor=none;" parent="1" vertex="1">
          <mxGeometry x="1170" y="666" width="40" height="38" as="geometry" />
        </mxCell>
        <mxCell id="7OVz4w7n9kzEPWy-4BBC-10" value="7" style="rounded=1;whiteSpace=wrap;html=1;fillColor=#007CBD;strokeColor=none;fontColor=#FFFFFF;fontStyle=1;fontSize=22;labelBackgroundColor=none;" parent="1" vertex="1">
          <mxGeometry x="1169.5" y="748" width="40" height="38" as="geometry" />
        </mxCell>
        <mxCell id="7OVz4w7n9kzEPWy-4BBC-11" value="8" style="rounded=1;whiteSpace=wrap;html=1;fillColor=#007CBD;strokeColor=none;fontColor=#FFFFFF;fontStyle=1;fontSize=22;labelBackgroundColor=none;" parent="1" vertex="1">
          <mxGeometry x="1170" y="831" width="40" height="38" as="geometry" />
        </mxCell>
        <mxCell id="7OVz4w7n9kzEPWy-4BBC-13" value="&lt;span&gt;You own a domain, e.g., &#39;example.com&#39;. It can be at any registrar, also Route53 itself in the same or any other AWS account.&lt;/span&gt;" style="text;html=1;align=left;verticalAlign=top;spacingTop=-4;fontSize=14;labelBackgroundColor=none;whiteSpace=wrap;" parent="1" vertex="1">
          <mxGeometry x="1220.5" y="62.5" width="449" height="118" as="geometry" />
        </mxCell>
        <mxCell id="7OVz4w7n9kzEPWy-4BBC-14" value="The stack creates a Route53 public Hosted Zone for the subdomain, e.g., &#39;aws.example.com&#39;. It also automatically adds the TXT and CNAME records for verifying the domain towards SES.&lt;br&gt;&lt;br&gt;You must now add the NS server entries into the Domain provider which owns the main domain &#39;example.com&#39;." style="text;html=1;align=left;verticalAlign=top;spacingTop=-4;fontSize=14;labelBackgroundColor=none;whiteSpace=wrap;" parent="1" vertex="1">
          <mxGeometry x="1219.5" y="185.5" width="450" height="115" as="geometry" />
        </mxCell>
        <mxCell id="7OVz4w7n9kzEPWy-4BBC-15" value="&lt;span&gt;When the subdomain &#39;aws.example.com&#39; is successfully propagated, the stack creates a verified Domain in AWS SES and adds a recipient rule for &#39;root@aws.example.com&#39;. &lt;br&gt;&lt;/span&gt;" style="text;html=1;align=left;verticalAlign=top;spacingTop=-4;fontSize=14;labelBackgroundColor=none;whiteSpace=wrap;" parent="1" vertex="1">
          <mxGeometry x="1219.5" y="303.5" width="450" height="117" as="geometry" />
        </mxCell>
        <mxCell id="7OVz4w7n9kzEPWy-4BBC-16" value="So any mail going to &#39;root+&amp;lt;any-string&amp;gt;@aws.example.com&#39; will be processed by OpsSanta Lambda function and also stored in the rootmail S3 bucket." style="text;html=1;align=left;verticalAlign=top;spacingTop=-4;fontSize=14;labelBackgroundColor=none;whiteSpace=wrap;" parent="1" vertex="1">
          <mxGeometry x="1219.5" y="419.5" width="450" height="121" as="geometry" />
        </mxCell>
        <mxCell id="7OVz4w7n9kzEPWy-4BBC-17" value="&lt;span&gt;The OpsSanta function verifies the verdicts (DKIM etc.) of the sender, also skips AWS Account welcome EMails, and processes all other EMails. If it is a password reset link EMail it stores the link in the parameter store (and does not create an OpsItem for now). For all other mails, which are not skipped an OpsItem is created to have a central location for all items. Note: you can also connect your Jira to the OpsCenter.&lt;/span&gt;" style="text;html=1;align=left;verticalAlign=top;spacingTop=-4;fontSize=14;labelBackgroundColor=none;whiteSpace=wrap;" parent="1" vertex="1">
          <mxGeometry x="1220.5" y="536.5" width="449" height="123.5" as="geometry" />
        </mxCell>
        <mxCell id="7OVz4w7n9kzEPWy-4BBC-18" value="&lt;span&gt;The bucket where all mail to &#39;root@aws.example.com&#39; are stored.&lt;/span&gt;" style="text;html=1;align=left;verticalAlign=top;spacingTop=-4;fontSize=14;labelBackgroundColor=none;whiteSpace=wrap;" parent="1" vertex="1">
          <mxGeometry x="1220.5" y="667.5" width="450" height="62.5" as="geometry" />
        </mxCell>
        <mxCell id="7OVz4w7n9kzEPWy-4BBC-19" value="&lt;span&gt;The SSM parameter store for password reset links.&lt;/span&gt;" style="text;html=1;align=left;verticalAlign=top;spacingTop=-4;fontSize=14;labelBackgroundColor=none;whiteSpace=wrap;" parent="1" vertex="1">
          <mxGeometry x="1220.5" y="748.5" width="449" height="47.5" as="geometry" />
        </mxCell>
        <mxCell id="7OVz4w7n9kzEPWy-4BBC-20" value="&lt;span&gt;The OpsItem which is created. It is open and shall be further processed either in the OpsCenter or any other issue tracker.&lt;/span&gt;" style="text;html=1;align=left;verticalAlign=top;spacingTop=-4;fontSize=14;labelBackgroundColor=none;whiteSpace=wrap;" parent="1" vertex="1">
          <mxGeometry x="1220.5" y="832.5" width="449" height="48.5" as="geometry" />
        </mxCell>
        <mxCell id="bbvVeTHvoaUDWQekboov-1" value="AWS Account" style="points=[[0,0],[0.25,0],[0.5,0],[0.75,0],[1,0],[1,0.25],[1,0.5],[1,0.75],[1,1],[0.75,1],[0.5,1],[0.25,1],[0,1],[0,0.75],[0,0.5],[0,0.25]];outlineConnect=0;gradientColor=none;html=1;whiteSpace=wrap;fontSize=12;fontStyle=0;container=1;pointerEvents=0;collapsible=0;recursiveResize=0;shape=mxgraph.aws4.group;grIcon=mxgraph.aws4.group_account;strokeColor=#CD2264;fillColor=none;verticalAlign=top;align=left;spacingLeft=30;fontColor=#CD2264;dashed=0;" vertex="1" parent="1">
          <mxGeometry x="56.5" y="282.5" width="1063.5" height="622" as="geometry" />
        </mxCell>
        <mxCell id="bbvVeTHvoaUDWQekboov-2" value="eu-west-1" style="sketch=0;outlineConnect=0;gradientColor=none;html=1;whiteSpace=wrap;fontSize=12;fontStyle=0;shape=mxgraph.aws4.group;grIcon=mxgraph.aws4.group_region;strokeColor=#879196;fillColor=none;verticalAlign=top;align=left;spacingLeft=30;fontColor=#879196;dashed=1;" vertex="1" parent="bbvVeTHvoaUDWQekboov-1">
          <mxGeometry x="15.5" y="310" width="1024.5" height="290" as="geometry" />
        </mxCell>
        <mxCell id="bbvVeTHvoaUDWQekboov-5" value="eu-central-1 (or any other region you deploy)" style="sketch=0;outlineConnect=0;gradientColor=none;html=1;whiteSpace=wrap;fontSize=12;fontStyle=0;shape=mxgraph.aws4.group;grIcon=mxgraph.aws4.group_region;strokeColor=#879196;fillColor=none;verticalAlign=top;align=left;spacingLeft=30;fontColor=#879196;dashed=1;" vertex="1" parent="bbvVeTHvoaUDWQekboov-1">
          <mxGeometry x="220" y="49" width="820" height="231" as="geometry" />
        </mxCell>
        <mxCell id="bbvVeTHvoaUDWQekboov-7" value="aws.example.com" style="sketch=0;outlineConnect=0;fontColor=#232F3E;gradientColor=none;strokeColor=#ffffff;fillColor=#232F3E;dashed=0;verticalLabelPosition=middle;verticalAlign=bottom;align=center;html=1;whiteSpace=wrap;fontSize=10;fontStyle=1;spacing=3;shape=mxgraph.aws4.productIcon;prIcon=mxgraph.aws4.route_53;" vertex="1" parent="bbvVeTHvoaUDWQekboov-1">
          <mxGeometry x="93.5" y="97.5" width="80" height="110" as="geometry" />
        </mxCell>
        <mxCell id="bbvVeTHvoaUDWQekboov-8" value="rootmail" style="sketch=0;outlineConnect=0;fontColor=#232F3E;gradientColor=none;fillColor=#3F8624;strokeColor=none;dashed=0;verticalLabelPosition=bottom;verticalAlign=top;align=center;html=1;fontSize=12;fontStyle=0;aspect=fixed;pointerEvents=1;shape=mxgraph.aws4.bucket;" vertex="1" parent="bbvVeTHvoaUDWQekboov-1">
          <mxGeometry x="473.5" y="107.5" width="75" height="78" as="geometry" />
        </mxCell>
        <mxCell id="bbvVeTHvoaUDWQekboov-14" value="" style="edgeStyle=orthogonalEdgeStyle;rounded=0;orthogonalLoop=1;jettySize=auto;html=1;" edge="1" parent="bbvVeTHvoaUDWQekboov-1" source="bbvVeTHvoaUDWQekboov-9" target="bbvVeTHvoaUDWQekboov-13">
          <mxGeometry relative="1" as="geometry" />
        </mxCell>
        <mxCell id="bbvVeTHvoaUDWQekboov-16" value="" style="edgeStyle=orthogonalEdgeStyle;rounded=0;orthogonalLoop=1;jettySize=auto;html=1;" edge="1" parent="bbvVeTHvoaUDWQekboov-1" source="bbvVeTHvoaUDWQekboov-9" target="bbvVeTHvoaUDWQekboov-7">
          <mxGeometry relative="1" as="geometry" />
        </mxCell>
        <mxCell id="bbvVeTHvoaUDWQekboov-9" value="SES verified Domain&lt;br&gt;for&lt;br&gt;&lt;b&gt;aws.example.com&lt;/b&gt;" style="sketch=0;points=[[0,0,0],[0.25,0,0],[0.5,0,0],[0.75,0,0],[1,0,0],[0,1,0],[0.25,1,0],[0.5,1,0],[0.75,1,0],[1,1,0],[0,0.25,0],[0,0.5,0],[0,0.75,0],[1,0.25,0],[1,0.5,0],[1,0.75,0]];outlineConnect=0;fontColor=#232F3E;gradientColor=#FF5252;gradientDirection=north;fillColor=#C7131F;strokeColor=#ffffff;dashed=0;verticalLabelPosition=bottom;verticalAlign=top;align=center;html=1;fontSize=12;fontStyle=0;aspect=fixed;shape=mxgraph.aws4.resourceIcon;resIcon=mxgraph.aws4.simple_email_service;" vertex="1" parent="bbvVeTHvoaUDWQekboov-1">
          <mxGeometry x="94.5" y="382" width="78" height="78" as="geometry" />
        </mxCell>
        <mxCell id="bbvVeTHvoaUDWQekboov-17" value="store" style="edgeStyle=orthogonalEdgeStyle;rounded=0;orthogonalLoop=1;jettySize=auto;html=1;" edge="1" parent="bbvVeTHvoaUDWQekboov-1" source="bbvVeTHvoaUDWQekboov-13" target="bbvVeTHvoaUDWQekboov-8">
          <mxGeometry relative="1" as="geometry">
            <Array as="points">
              <mxPoint x="353" y="358" />
              <mxPoint x="511" y="358" />
            </Array>
          </mxGeometry>
        </mxCell>
        <mxCell id="bbvVeTHvoaUDWQekboov-19" value="" style="edgeStyle=orthogonalEdgeStyle;rounded=0;orthogonalLoop=1;jettySize=auto;html=1;" edge="1" parent="bbvVeTHvoaUDWQekboov-1" source="bbvVeTHvoaUDWQekboov-13" target="bbvVeTHvoaUDWQekboov-18">
          <mxGeometry relative="1" as="geometry" />
        </mxCell>
        <mxCell id="bbvVeTHvoaUDWQekboov-20" value="invoke" style="edgeLabel;html=1;align=center;verticalAlign=middle;resizable=0;points=[];" vertex="1" connectable="0" parent="bbvVeTHvoaUDWQekboov-19">
          <mxGeometry x="-0.4697" relative="1" as="geometry">
            <mxPoint y="1" as="offset" />
          </mxGeometry>
        </mxCell>
        <mxCell id="bbvVeTHvoaUDWQekboov-13" value="rule for&lt;br&gt;&lt;b&gt;root@aws.example.com&lt;/b&gt;" style="sketch=0;outlineConnect=0;fontColor=#232F3E;gradientColor=none;fillColor=#BF0816;strokeColor=none;dashed=0;verticalLabelPosition=bottom;verticalAlign=top;align=center;html=1;fontSize=12;fontStyle=0;aspect=fixed;pointerEvents=1;shape=mxgraph.aws4.filtering_rule;" vertex="1" parent="bbvVeTHvoaUDWQekboov-1">
          <mxGeometry x="313.5" y="382" width="78" height="78" as="geometry" />
        </mxCell>
        <mxCell id="bbvVeTHvoaUDWQekboov-22" value="" style="edgeStyle=orthogonalEdgeStyle;rounded=0;orthogonalLoop=1;jettySize=auto;html=1;" edge="1" parent="bbvVeTHvoaUDWQekboov-1" source="bbvVeTHvoaUDWQekboov-18" target="bbvVeTHvoaUDWQekboov-21">
          <mxGeometry relative="1" as="geometry" />
        </mxCell>
        <mxCell id="bbvVeTHvoaUDWQekboov-23" value="create" style="edgeLabel;html=1;align=center;verticalAlign=middle;resizable=0;points=[];" vertex="1" connectable="0" parent="bbvVeTHvoaUDWQekboov-22">
          <mxGeometry x="0.0814" relative="1" as="geometry">
            <mxPoint y="1" as="offset" />
          </mxGeometry>
        </mxCell>
        <mxCell id="bbvVeTHvoaUDWQekboov-25" value="" style="edgeStyle=orthogonalEdgeStyle;rounded=0;orthogonalLoop=1;jettySize=auto;html=1;" edge="1" parent="bbvVeTHvoaUDWQekboov-1" source="bbvVeTHvoaUDWQekboov-18" target="bbvVeTHvoaUDWQekboov-24">
          <mxGeometry relative="1" as="geometry" />
        </mxCell>
        <mxCell id="bbvVeTHvoaUDWQekboov-26" value="if it&#39;s a AWS password reset mail" style="edgeLabel;html=1;align=center;verticalAlign=middle;resizable=0;points=[];" vertex="1" connectable="0" parent="bbvVeTHvoaUDWQekboov-25">
          <mxGeometry x="-0.4374" relative="1" as="geometry">
            <mxPoint as="offset" />
          </mxGeometry>
        </mxCell>
        <mxCell id="bbvVeTHvoaUDWQekboov-18" value="OPS Santa" style="sketch=0;outlineConnect=0;fontColor=#232F3E;gradientColor=none;strokeColor=#ffffff;fillColor=#232F3E;dashed=0;verticalLabelPosition=middle;verticalAlign=bottom;align=center;html=1;whiteSpace=wrap;fontSize=10;fontStyle=1;spacing=3;shape=mxgraph.aws4.productIcon;prIcon=mxgraph.aws4.lambda;" vertex="1" parent="bbvVeTHvoaUDWQekboov-1">
          <mxGeometry x="633.5" y="371" width="80" height="100" as="geometry" />
        </mxCell>
        <mxCell id="bbvVeTHvoaUDWQekboov-21" value="Ops Item" style="sketch=0;outlineConnect=0;fontColor=#232F3E;gradientColor=none;fillColor=#B0084D;strokeColor=none;dashed=0;verticalLabelPosition=bottom;verticalAlign=top;align=center;html=1;fontSize=12;fontStyle=0;aspect=fixed;pointerEvents=1;shape=mxgraph.aws4.systems_manager_opscenter;" vertex="1" parent="bbvVeTHvoaUDWQekboov-1">
          <mxGeometry x="823.5" y="107.5" width="78" height="78" as="geometry" />
        </mxCell>
        <mxCell id="bbvVeTHvoaUDWQekboov-24" value="Parameter for&lt;br&gt;&lt;b&gt;/superwerker/rootmail/pw_reset_link&lt;/b&gt;" style="sketch=0;outlineConnect=0;fontColor=#232F3E;gradientColor=none;fillColor=#B0084D;strokeColor=none;dashed=0;verticalLabelPosition=bottom;verticalAlign=top;align=center;html=1;fontSize=12;fontStyle=0;aspect=fixed;pointerEvents=1;shape=mxgraph.aws4.parameter_store;" vertex="1" parent="bbvVeTHvoaUDWQekboov-1">
          <mxGeometry x="636" y="107.5" width="75" height="78" as="geometry" />
        </mxCell>
        <mxCell id="-QjtrjUzRDEMRZ5MF8oH-27" value="2" style="rounded=1;whiteSpace=wrap;html=1;fillColor=#007CBD;strokeColor=none;fontColor=#FFFFFF;fontStyle=1;fontSize=22;" parent="bbvVeTHvoaUDWQekboov-1" vertex="1">
          <mxGeometry x="33.5" y="117.5" width="40" height="38" as="geometry" />
        </mxCell>
        <mxCell id="-QjtrjUzRDEMRZ5MF8oH-28" value="3" style="rounded=1;whiteSpace=wrap;html=1;fillColor=#007CBD;strokeColor=none;fontColor=#FFFFFF;fontStyle=1;fontSize=22;" parent="bbvVeTHvoaUDWQekboov-1" vertex="1">
          <mxGeometry x="33.5" y="397.5" width="40" height="38" as="geometry" />
        </mxCell>
        <mxCell id="bbvVeTHvoaUDWQekboov-48" value="4" style="rounded=1;whiteSpace=wrap;html=1;fillColor=#007CBD;strokeColor=none;fontColor=#FFFFFF;fontStyle=1;fontSize=22;" vertex="1" parent="bbvVeTHvoaUDWQekboov-1">
          <mxGeometry x="253.5" y="371" width="40" height="38" as="geometry" />
        </mxCell>
        <mxCell id="bbvVeTHvoaUDWQekboov-49" value="5" style="rounded=1;whiteSpace=wrap;html=1;fillColor=#007CBD;strokeColor=none;fontColor=#FFFFFF;fontStyle=1;fontSize=22;" vertex="1" parent="bbvVeTHvoaUDWQekboov-1">
          <mxGeometry x="573.5" y="447.5" width="40" height="38" as="geometry" />
        </mxCell>
        <mxCell id="bbvVeTHvoaUDWQekboov-50" value="6" style="rounded=1;whiteSpace=wrap;html=1;fillColor=#007CBD;strokeColor=none;fontColor=#FFFFFF;fontStyle=1;fontSize=22;" vertex="1" parent="bbvVeTHvoaUDWQekboov-1">
          <mxGeometry x="413.5" y="133.5" width="40" height="38" as="geometry" />
        </mxCell>
        <mxCell id="bbvVeTHvoaUDWQekboov-51" value="7" style="rounded=1;whiteSpace=wrap;html=1;fillColor=#007CBD;strokeColor=none;fontColor=#FFFFFF;fontStyle=1;fontSize=22;" vertex="1" parent="bbvVeTHvoaUDWQekboov-1">
          <mxGeometry x="573.5" y="133.5" width="40" height="38" as="geometry" />
        </mxCell>
        <mxCell id="bbvVeTHvoaUDWQekboov-52" value="8" style="rounded=1;whiteSpace=wrap;html=1;fillColor=#007CBD;strokeColor=none;fontColor=#FFFFFF;fontStyle=1;fontSize=22;" vertex="1" parent="bbvVeTHvoaUDWQekboov-1">
          <mxGeometry x="773.5" y="127.5" width="40" height="38" as="geometry" />
        </mxCell>
        <mxCell id="bbvVeTHvoaUDWQekboov-10" value="&lt;br&gt;example.com" style="sketch=0;outlineConnect=0;fontColor=#232F3E;gradientColor=none;strokeColor=#ffffff;fillColor=#232F3E;dashed=0;verticalLabelPosition=middle;verticalAlign=bottom;align=center;html=1;whiteSpace=wrap;fontSize=10;fontStyle=1;spacing=3;shape=mxgraph.aws4.productIcon;prIcon=mxgraph.aws4.route_53;" vertex="1" parent="1">
          <mxGeometry x="150" y="160" width="80" height="110" as="geometry" />
        </mxCell>
        <mxCell id="bbvVeTHvoaUDWQekboov-11" value="DNS Provider" style="image;sketch=0;aspect=fixed;html=1;points=[];align=center;fontSize=12;image=img/lib/mscae/DNS.svg;" vertex="1" parent="1">
          <mxGeometry x="310" y="173" width="50" height="50" as="geometry" />
        </mxCell>
        <mxCell id="bbvVeTHvoaUDWQekboov-12" value="add NS entries" style="edgeStyle=orthogonalEdgeStyle;rounded=0;orthogonalLoop=1;jettySize=auto;html=1;" edge="1" parent="1" source="bbvVeTHvoaUDWQekboov-7" target="bbvVeTHvoaUDWQekboov-10">
          <mxGeometry relative="1" as="geometry" />
        </mxCell>
      </root>
    </mxGraphModel>
  </diagram>
</mxfile>
